<?xml version="1.0" encoding="UTF-8"?>
<!-- Created with Inkscape (http://www.inkscape.org/) -->
<svg width="61mm" height="13mm" version="1.1" viewBox="0 0 61 13" xmlns="http://www.w3.org/2000/svg" xmlns:cc="http://creativecommons.org/ns#" xmlns:dc="http://purl.org/dc/elements/1.1/" xmlns:rdf="http://www.w3.org/1999/02/22-rdf-syntax-ns#">
 <g transform="translate(-45,-50)">
  <path d="m56 60-6 4-6-4v-6l6-4 6 4z" fill="#320e40" stroke-width=".05"/>
  <path d="m55 60-5 3-5-3v-6l5-3 5 3z" stroke-width=".04"/>
  <g fill="#320e40">
   <g stroke-width=".04">
    <rect x="48" y="58" width=".66" height=".95"/>
    <rect x="52" y="58" width=".66" height=".95"/>
    <rect x="48" y="56" width=".66" height=".95"/>
    <rect x="52" y="56" width=".66" height=".95"/>
    <rect x="48" y="54" width=".66" height=".95"/>
    <rect x="52" y="54" width=".66" height=".95"/>
   </g>
   <rect transform="rotate(-.57)" x="47" y="60" width="4.8" height=".55" stroke-width=".05"/>
   <rect x="48" y="60" width=".66" height=".95" stroke-width=".04"/>
   <rect x="52" y="60" width=".66" height=".95" stroke-width=".04"/>
   <g stroke-width=".05">
    <rect transform="rotate(-.57)" x="47" y="58" width="4.8" height=".56"/>
    <rect transform="rotate(-.6)" x="47" y="56" width="4.8" height=".56"/>
    <rect transform="rotate(-.6)" x="47" y="54" width="4.8" height=".56"/>
   </g>
  </g>
  <text x="56" y="63" fill="#000000" font-family="Garuda" font-size="16.51px" letter-spacing="0px" stroke-width="1.05" word-spacing="0px" style="line-height:1.25" xml:space="preserve"><tspan x="56" y="63" font-family="monospace" stroke-width="1.05">stack</tspan></text>
 </g>
</svg>
